<mxfile host="app.diagrams.net" agent="Mozilla/5.0 (Windows NT 10.0; Win64; x64) AppleWebKit/537.36 (KHTML, like Gecko) Chrome/130.0.0.0 Safari/537.36" version="24.8.4">
  <diagram name="Pagina-1" id="8RZmaSLxF_YMhcDx5PAH">
    <mxGraphModel dx="714" dy="374" grid="1" gridSize="10" guides="1" tooltips="1" connect="1" arrows="1" fold="1" page="1" pageScale="1" pageWidth="827" pageHeight="1169" math="0" shadow="0">
      <root>
        <mxCell id="0" />
        <mxCell id="1" parent="0" />
        <mxCell id="OHKHM_IVCvyiMSshCB1h-1" value="" style="shape=cylinder3;whiteSpace=wrap;html=1;boundedLbl=1;backgroundOutline=1;size=15;rotation=90;fillColor=#f9f7ed;strokeColor=#000000;gradientColor=#DEDCD3;" vertex="1" parent="1">
          <mxGeometry x="235" y="185" width="120" height="180" as="geometry" />
        </mxCell>
        <mxCell id="OHKHM_IVCvyiMSshCB1h-2" value="" style="shape=cylinder3;whiteSpace=wrap;html=1;boundedLbl=1;backgroundOutline=1;size=7.985700334821388;rotation=90;labelBorderColor=none;fillStyle=auto;fillColor=#ffcc99;strokeColor=none;gradientColor=#FFC35C;gradientDirection=west;" vertex="1" parent="1">
          <mxGeometry x="369" y="221.25" width="90" height="107.5" as="geometry" />
        </mxCell>
        <mxCell id="OHKHM_IVCvyiMSshCB1h-5" value="guaina isolante esterna" style="text;html=1;align=center;verticalAlign=middle;whiteSpace=wrap;rounded=0;fontFamily=Times New Roman;fontSize=14;" vertex="1" parent="1">
          <mxGeometry x="217.5" y="335" width="155" height="30" as="geometry" />
        </mxCell>
        <mxCell id="OHKHM_IVCvyiMSshCB1h-6" value="calza" style="text;html=1;align=center;verticalAlign=middle;whiteSpace=wrap;rounded=0;fontFamily=Times New Roman;fontSize=14;" vertex="1" parent="1">
          <mxGeometry x="336.5" y="320.63" width="155" height="30" as="geometry" />
        </mxCell>
        <mxCell id="OHKHM_IVCvyiMSshCB1h-7" value="isolante" style="text;html=1;align=center;verticalAlign=middle;whiteSpace=wrap;rounded=0;fontFamily=Times New Roman;fontSize=14;" vertex="1" parent="1">
          <mxGeometry x="417" y="313.45" width="155" height="30" as="geometry" />
        </mxCell>
        <mxCell id="OHKHM_IVCvyiMSshCB1h-8" value="cavo di rame" style="text;html=1;align=center;verticalAlign=middle;whiteSpace=wrap;rounded=0;fontFamily=Times New Roman;fontSize=14;" vertex="1" parent="1">
          <mxGeometry x="500" y="290.63" width="155" height="30" as="geometry" />
        </mxCell>
        <mxCell id="OHKHM_IVCvyiMSshCB1h-9" value="" style="shape=cylinder3;whiteSpace=wrap;html=1;boundedLbl=1;backgroundOutline=1;size=7.985700334821388;rotation=90;labelBorderColor=none;fillStyle=cross-hatch;fillColor=#BD6531;strokeColor=#000000;" vertex="1" parent="1">
          <mxGeometry x="369" y="221.25" width="90" height="107.5" as="geometry" />
        </mxCell>
        <mxCell id="OHKHM_IVCvyiMSshCB1h-10" value="" style="shape=cylinder3;whiteSpace=wrap;html=1;boundedLbl=1;backgroundOutline=1;size=7.985700334821388;rotation=90;fillColor=#B8B8B8;gradientColor=#1A5394;strokeColor=#000000;gradientDirection=west;" vertex="1" parent="1">
          <mxGeometry x="459" y="235.63" width="71" height="78.75" as="geometry" />
        </mxCell>
        <mxCell id="OHKHM_IVCvyiMSshCB1h-11" value="" style="shape=cylinder3;whiteSpace=wrap;html=1;boundedLbl=1;backgroundOutline=1;size=3.8090359933036666;rotation=90;fillColor=#BD6531;strokeColor=#000000;fontColor=#000000;gradientColor=#F7B94D;gradientDirection=west;" vertex="1" parent="1">
          <mxGeometry x="540" y="242.82" width="30" height="64.38" as="geometry" />
        </mxCell>
      </root>
    </mxGraphModel>
  </diagram>
</mxfile>
